<svg width="92" height="92" viewBox="0 0 92 92" fill="none" xmlns="http://www.w3.org/2000/svg">
<g filter="url(#filter0_d_787_727)">
<circle cx="46" cy="45" r="40" fill="white"/>
</g>
<path d="M33.65 47.8C33.1833 47.8 32.95 47.5667 32.95 47.1V46.4C32.95 45.9333 33.1833 45.7 33.65 45.7H45.4V34C45.4 33.5333 45.6333 33.3 46.1 33.3H46.8C47.2667 33.3 47.5 33.5333 47.5 34V45.7H59.3C59.7667 45.7 60 45.9333 60 46.4V47.1C60 47.5667 59.7667 47.8 59.3 47.8H47.5V59.45C47.5 59.9167 47.2667 60.15 46.8 60.15H46.1C45.6333 60.15 45.4 59.9167 45.4 59.45V47.8H33.65Z" fill="black"/>
<defs>
<filter id="filter0_d_787_727" x="0" y="0" width="92" height="92" filterUnits="userSpaceOnUse" color-interpolation-filters="sRGB">
<feFlood flood-opacity="0" result="BackgroundImageFix"/>
<feColorMatrix in="SourceAlpha" type="matrix" values="0 0 0 0 0 0 0 0 0 0 0 0 0 0 0 0 0 0 127 0" result="hardAlpha"/>
<feMorphology radius="1" operator="dilate" in="SourceAlpha" result="effect1_dropShadow_787_727"/>
<feOffset dy="1"/>
<feGaussianBlur stdDeviation="2.5"/>
<feComposite in2="hardAlpha" operator="out"/>
<feColorMatrix type="matrix" values="0 0 0 0 0.603846 0 0 0 0 0.603846 0 0 0 0 0.603846 0 0 0 0.25 0"/>
<feBlend mode="normal" in2="BackgroundImageFix" result="effect1_dropShadow_787_727"/>
<feBlend mode="normal" in="SourceGraphic" in2="effect1_dropShadow_787_727" result="shape"/>
</filter>
</defs>
</svg>
